<svg xmlns="http://www.w3.org/2000/svg" width="500" height="500" viewBox="0 0 500 500"><g><path fill="#E50900" d="M333.3 123.4l-.1-.1c-.103.1-.103.1-.2.1h.3zM168.4 379.1c.1-.1.3-.3.5-.397h-.9c.1.197.2.297.4.397zM250.8 498c-136.1 0-246.8-110.7-246.8-246.8 0-136.1 110.7-246.8 246.8-246.8 136.103 0 246.8 110.7 246.8 246.8 0 136.1-110.7 246.8-246.8 246.8zm0-471.8c-124.1 0-225 100.9-225 225s100.9 225 225 225c124.103 0 225-100.9 225-225s-100.9-225-225-225zM138.6 313.8c4.2-15.3 10.4-24.399 20.3-33.3 30.4-28 114.7-103.9 121.1-109.7l35.4-31.5c2.197-2 8.8-7.8 17.6-15.7l-92-.3c-45 39.7-144.3 124.9-155.3 132.2-8.9 6.1-27.8 19.4-11.7 47 16.5 18.6 41.5 48.6 65.5 76.2l28.5.1c-21.1-24.2-32.7-48.2-29.4-65zM363 188.9c-4.2 15.3-10.4 24.4-20.4 33.3-30.4 28-114.7 103.9-121.1 109.7l-35.4 31.5c-2.2 1.897-8.7 7.699-17.3 15.5l92 .3c45.2-39.8 144.103-124.7 155-131.9 8.9-6.1 27.8-18.2 11.7-47-16.6-18.6-41.7-48.8-65.7-76.5l-28.5-.1c21.3 24.2 33 48.3 29.7 65.2z"/></g></svg>