<svg viewBox="0 0 100 200" style="background-color:#ffffff00" xmlns="http://www.w3.org/2000/svg" width="100" height="200"><defs><radialGradient id="a"><stop stop-color="#222" stop-opacity="0" offset="70%"/><stop stop-color="#222" stop-opacity=".012" offset="70.202%"/><stop stop-color="#333" offset="85%"/><stop stop-color="#333" stop-opacity="0" offset="100%"/></radialGradient><radialGradient id="b"><stop stop-color="#bbb" stop-opacity="0" offset="70%"/><stop stop-color="#bbb" stop-opacity=".012" offset="70.202%"/><stop stop-color="#bbb" offset="85%"/><stop stop-color="#bbb" stop-opacity="0" offset="100%"/></radialGradient><filter id="c" x="-100%" y="-100%" width="300%" height="300%"><feColorMatrix result="out" in="SourceGraphic" values="0 0 0 0 0 0 0 0 0 0 0 0 0 0 0 0 0 0 0.251 0"/><feMorphology result="out" in="out" operator="dilate" radius="3"/><feGaussianBlur result="out" in="out" stdDeviation="1.5"/><feBlend in="SourceGraphic" in2="out" result="Glow1"/></filter><filter id="d" x="-100%" y="-100%" width="300%" height="300%"><feColorMatrix result="out" in="SourceGraphic" values="0 0 0 0.8667 0 0 0 0 0.8667 0 0 0 0 0.8667 0 0 0 0 0.251 0"/><feMorphology result="out" in="out" operator="dilate" radius="3"/><feGaussianBlur result="out" in="out" stdDeviation="1.5"/><feBlend in="SourceGraphic" in2="out" result="Glow2"/></filter></defs><g><path d="M22 50c0-15.464 12.536-28 28-28s28 12.536 28 28-12.536 28-28 28-28-12.536-28-28zm-17 0c0 24.853 20.147 45 45 45s45-20.147 45-45-20.147-45-45-45-45 20.147-45 45z" fill="url(#a)"/><path d="M22 150c0-15.464 12.536-28 28-28s28 12.536 28 28-12.536 28-28 28-28-12.536-28-28zm-17 0c0 24.853 20.147 45 45 45s45-20.147 45-45-20.147-45-45-45-45 20.147-45 45z" fill="url(#b)"/></g><g><path filter="url(#c)" d="M72.5 49.5l-33.75 19.486v-38.971l33.75 19.486z" fill="#fff"/><path d="M13 50.5c0-20.711 16.789-37.5 37.5-37.5s37.5 16.789 37.5 37.5-16.789 37.5-37.5 37.5-37.5-16.789-37.5-37.5z" stroke="#fff" stroke-width="5" fill="none"/></g><g><path filter="url(#d)" d="M72.5 149.5l-33.75 19.486v-38.971l33.75 19.486z" fill="#fff"/><path d="M13 150.5c0-20.711 16.789-37.5 37.5-37.5s37.5 16.789 37.5 37.5-16.789 37.5-37.5 37.5-37.5-16.789-37.5-37.5z" stroke="#fff" stroke-width="5" fill="none"/></g></svg>