<?xml version="1.0" encoding="utf-8"?>
<!-- Generator: Adobe Illustrator 16.0.0, SVG Export Plug-In . SVG Version: 6.00 Build 0)  -->
<!DOCTYPE svg PUBLIC "-//W3C//DTD SVG 1.1//EN" "http://www.w3.org/Graphics/SVG/1.1/DTD/svg11.dtd">
<svg version="1.1" xmlns="http://www.w3.org/2000/svg" xmlns:xlink="http://www.w3.org/1999/xlink" x="0px" y="0px" width="250px"
	 height="250px" viewBox="0 0 250 250" enable-background="new 0 0 250 250" xml:space="preserve">
<g id="Layer_3_1_">
	<g>
		<path fill="#FFFFFF" d="M125.001,9c30.983,0,60.112,12.066,82.022,33.976C228.934,64.885,241,94.016,241,125
			c0,30.984-12.066,60.115-33.977,82.023C185.113,228.934,155.984,241,125.001,241c-30.984,0-60.115-12.066-82.025-33.977
			C21.066,185.115,9,155.984,9,125c0-30.984,12.066-60.115,33.976-82.024C64.886,21.066,94.017,9,125.001,9 M125.001,1
			C56.518,1,1,56.517,1,125c0,68.482,55.518,124,124.001,124C193.482,249,249,193.482,249,125C249,56.517,193.482,1,125.001,1
			L125.001,1z"/>
	</g>
</g>
<g id="Layer_2_1_">
	<path fill="#FFFFFF" d="M57.5,125.003h57.667v76.998h-47c0,0-9.667,0.166-10.667-9.501V125.003z"/>
	<path fill="#FFFFFF" d="M192.168,125.003h-57.667v76.998h47c0,0,9.667,0.166,10.667-9.501V125.003z"/>
	<path fill="#FFFFFF" d="M58.17,86.833c5.334,0,56.667,0,56.667,0V114.5H49.004V96.167C49.004,96.167,49.004,87.5,58.17,86.833z"/>
	<path fill="#FFFFFF" d="M191.084,86.833c-5.334,0-56.667,0-56.667,0V114.5h65.833V96.167C200.25,96.167,200.25,87.5,191.084,86.833
		z"/>
	<path fill="#FFFFFF" d="M172.943,49.804c-21.496-8.431-38.334,10.5-38.334,10.5c-3.561-2.234-7.075-2.887-10.114-2.819
		c-3.039-0.068-6.553,0.585-10.114,2.819c0,0-16.837-18.931-38.333-10.5c-4.636,1.817-12,9.333-8.167,18.166
		c1.717,3.71,5.823,8.167,15.989,8.167h39.572h2.106h39.572c10.166,0,14.271-4.457,15.988-8.167
		C184.943,59.137,177.579,51.621,172.943,49.804z M81.135,66.97c-7.254-1.666-5.201-7.034-3.254-8.333
		c12.369-8.709,31.25,8.583,31.25,8.583L81.135,66.97z M167.855,66.97l-27.996,0.25c0,0,18.882-17.292,31.25-8.583
		C173.057,59.936,175.109,65.304,167.855,66.97z"/>
</g>
</svg>
