<?xml version="1.0" encoding="utf-8"?>
<!-- Generator: Adobe Illustrator 16.0.0, SVG Export Plug-In . SVG Version: 6.00 Build 0)  -->
<!DOCTYPE svg PUBLIC "-//W3C//DTD SVG 1.1//EN" "http://www.w3.org/Graphics/SVG/1.1/DTD/svg11.dtd">
<svg version="1.1" id="Layer_1" xmlns="http://www.w3.org/2000/svg" xmlns:xlink="http://www.w3.org/1999/xlink" x="0px" y="0px"
	 width="250px" height="250px" viewBox="0 0 250 250" enable-background="new 0 0 250 250" xml:space="preserve">
<g id="Layer_2">
</g>
<g id="Layer_3">
</g>
<g id="Layer_4">
</g>
<g id="Layer_5">
</g>
<g id="Layer_6">
	<g>
		<path fill="#FFFFFF" d="M125.001,9c30.983,0,60.112,12.065,82.022,33.976C228.934,64.885,241,94.016,241,125
			c0,30.984-12.066,60.115-33.977,82.023C185.113,228.934,155.984,241,125.001,241c-30.985,0-60.115-12.066-82.025-33.977
			C21.066,185.114,9,155.984,9,125c0-30.984,12.066-60.115,33.976-82.024C64.886,21.065,94.016,9,125.001,9 M125.001,1
			C56.518,1,1,56.517,1,125c0,68.482,55.518,124,124.001,124C193.482,249,249,193.482,249,125C249,56.517,193.482,1,125.001,1
			L125.001,1z"/>
	</g>
	<g>
		<g>
			<g>
				<g>
					<path fill="#FFFFFF" d="M86.588,105.338c-2.2,0-5.365,1.173-7.034,2.606l-40.085,34.434c-1.669,1.435-1.234,2.606,0.966,2.606
						h149.93c2.199,0,4.876-1.572,5.947-3.494l18.205-32.659c1.07-1.921,0.146-3.494-2.054-3.494L86.588,105.338L86.588,105.338z"/>
				</g>
				<g>
					<path fill="#FFFFFF" d="M36.536,150.184c-2.2,0-4,1.801-4,4v22.545c0,2.201,1.8,4,4,4h5.729c2.2,0,4-1.799,4-4v-13.446
						c0-2.2,1.8-4,4-4h127.674c2.199,0,4,1.8,4,4v13.446c0,2.201,1.799,4,4,4h5.727c2.2,0,4-1.799,4-4v-22.545c0-2.199-1.8-4-4-4
						H36.536z"/>
				</g>
				<g>
					<path fill="#FFFFFF" d="M86.588,69.271c-2.2,0-4,1.8-4,4V94.55c0,2.2,1.344,4,2.987,4c1.643,0,2.927-0.49,2.854-1.09
						c0,0,0,0,0-0.561c0-7.174,11.221-11.538,11.221-11.538c2.05-0.798,5.528-1.45,7.728-1.45h17.35c2.2,0,5.678,0.652,7.728,1.45
						c0,0,11.222,4.364,11.222,11.538c0,0.561,0,0.561,0,0.561c-0.072,0.6,1.022,1.09,2.434,1.09c1.412,0,2.508-0.49,2.435-1.09
						c0,0,0,0,0-0.561c0-7.174,11.222-11.538,11.222-11.538c2.051-0.798,5.527-1.45,7.729-1.45h17.352c2.2,0,5.678,0.652,7.729,1.45
						c0,0,11.22,4.364,11.22,11.538c0,0.561,0,0.561,0,0.561c-0.073,0.6,1.665,1.09,3.865,1.09h4.807c2.2,0,4-1.8,4-4V73.271
						c0-2.2-1.8-4-4-4H86.588z"/>
				</g>
			</g>
			<g>
				<path fill="#FFFFFF" d="M207.475,148.477c0,2.199,1.801,4,4,4h1.99c2.2,0,4-1.801,4-4v-34.456c0-2.2-0.838-2.407-1.861-0.459
					l-6.268,11.918c-1.023,1.948-1.861,5.34-1.861,7.542V148.477L207.475,148.477z"/>
			</g>
		</g>
	</g>
</g>
</svg>
