<?xml version="1.0" encoding="utf-8"?>
<!-- Generator: Adobe Illustrator 16.0.0, SVG Export Plug-In . SVG Version: 6.00 Build 0)  -->
<!DOCTYPE svg PUBLIC "-//W3C//DTD SVG 1.1//EN" "http://www.w3.org/Graphics/SVG/1.1/DTD/svg11.dtd">
<svg version="1.1" id="Layer_1" xmlns="http://www.w3.org/2000/svg" xmlns:xlink="http://www.w3.org/1999/xlink" x="0px" y="0px"
	 width="250px" height="250px" viewBox="0 0 250 250" enable-background="new 0 0 250 250" xml:space="preserve">
<g id="Layer_2">
	<g>
		<path fill="#FFFFFF" d="M125.001,9c30.983,0,60.112,12.066,82.022,33.976C228.934,64.885,241,94.016,241,125
			c0,30.984-12.066,60.115-33.977,82.023C185.113,228.934,155.984,241,125.001,241c-30.984,0-60.115-12.066-82.025-33.977
			C21.066,185.115,9,155.984,9,125c0-30.984,12.066-60.115,33.976-82.024C64.886,21.066,94.017,9,125.001,9 M125.001,1
			C56.518,1,1,56.517,1,125c0,68.482,55.518,124,124.001,124C193.482,249,249,193.482,249,125C249,56.517,193.482,1,125.001,1
			L125.001,1z"/>
	</g>
	<g>
		<path fill="#FFFFFF" d="M49.946,177.08c0,0,3.484,6.195,22.07,3.871v9.293c0,0,0.131,5.422-7.357,5.809H54.204
			c0,0-3.871-1.549-4.258-5.809V177.08z"/>
		<path fill="#FFFFFF" d="M201.016,177.08c0,0-3.483,6.195-22.07,3.871v9.293c0,0-0.131,5.422,7.357,5.809h10.452
			c0,0,3.873-1.549,4.261-5.809V177.08L201.016,177.08z"/>
		<path fill="#FFFFFF" d="M204.12,98.477c-6.328,0-11.892,3.266-15.103,8.203c0,0-7.142,12.807-8.711,22.773
			c0,0-20.652-7.615-55.31-7.398c-25.096-1.313-53.207,7.466-55.307,7.398c-1.57-9.967-8.711-22.773-8.711-22.773
			c-3.211-4.938-8.773-8.203-15.102-8.203c-9.943,0-18.006,8.061-18.006,18.004c0,7.143,4.16,13.314,10.188,16.225
			c4.914,3.489,6.076,23.853,6.076,23.853c0.773,15.877,16.844,16.265,16.844,16.265h63.695h0.646h63.696
			c0,0,16.069-0.388,16.844-16.265c0,0,1.162-20.36,6.076-23.853c6.026-2.91,10.188-9.082,10.188-16.225
			C222.126,106.537,214.063,98.477,204.12,98.477z"/>
		<path fill="#FFFFFF" d="M173.596,53.947h-48.015h-0.258H77.31C47.364,54.98,45.042,90.086,45.042,90.086
			c25.297-4.646,31.492,26.33,31.492,26.33c13.207-4.734,46.617-5.139,48.918-5.16c2.301,0.021,35.711,0.426,48.918,5.16
			c0,0,6.192-30.977,31.491-26.33C205.861,90.086,203.54,54.98,173.596,53.947z"/>
	</g>
</g>
<g id="Layer_3">
</g>
<g id="Layer_4">
</g>
<g id="Layer_5">
</g>
<g id="Layer_6">
</g>
</svg>
