<?xml version="1.0" encoding="utf-8"?>
<!-- Generator: Adobe Illustrator 16.0.0, SVG Export Plug-In . SVG Version: 6.00 Build 0)  -->
<!DOCTYPE svg PUBLIC "-//W3C//DTD SVG 1.1//EN" "http://www.w3.org/Graphics/SVG/1.1/DTD/svg11.dtd">
<svg version="1.1" xmlns="http://www.w3.org/2000/svg" xmlns:xlink="http://www.w3.org/1999/xlink" x="0px" y="0px" width="500px"
	 height="500px" viewBox="0 0 500 500" style="enable-background:new 0 0 500 500;" xml:space="preserve">
<g id="Layer_5">
</g>
<g id="Layer_4">
</g>
<g id="Layer_3">
</g>
<g id="Layer_2">
	<g>
		<g>
			<g>
				<path style="fill:none;" d="M315.4,139.1L280,170.6c-6.5,5.8-90.7,81.7-121.1,109.7c-10,8.9-16.2,18-20.4,33.3
					c-3.3,16.8,8.3,40.8,29.4,65.1h0.8c8.7-7.7,15.2-13.5,17.3-15.4l35.4-31.5c6.5-5.8,90.7-81.7,121.1-109.7
					c10-8.9,16.2-18,20.4-33.3c3.3-16.9-8.4-41-29.7-65.3H333C324.2,131.3,317.6,137.2,315.4,139.1z"/>
			</g>
			<g>
				<path style="fill:#16B798;" d="M333.3,123.4c0,0-0.1-0.1-0.1-0.1c-0.1,0.1-0.1,0.1-0.2,0.1H333.3z"/>
			</g>
			<g>
				<path style="fill:#16B798;" d="M168.4,379.1c0.1-0.1,0.3-0.3,0.5-0.4H168C168.1,378.9,168.2,379,168.4,379.1z"/>
			</g>
		</g>
		<g>
			<path style="fill:#1BB798;" d="M250.8,498C114.7,498,4,387.3,4,251.2C4,115.1,114.7,4.4,250.8,4.4
				c136.1,0,246.8,110.7,246.8,246.8C497.6,387.3,386.9,498,250.8,498z M250.8,26.2c-124.1,0-225,100.9-225,225
				c0,124.1,100.9,225,225,225c124.1,0,225-100.9,225-225C475.8,127.1,374.9,26.2,250.8,26.2z"/>
		</g>
		<g>
			<g>
				<path style="fill:#1BB798;" d="M138.6,313.8c4.2-15.3,10.4-24.4,20.3-33.3c30.4-28,114.7-103.9,121.1-109.7l35.4-31.5
					c2.2-2,8.8-7.8,17.6-15.7l-92-0.3C196,163,96.7,248.2,85.7,255.5c-8.9,6.1-27.8,19.4-11.7,47c16.5,18.6,41.5,48.6,65.5,76.2
					l28.5,0.1C146.9,354.6,135.3,330.6,138.6,313.8z"/>
			</g>
			<g>
				<path style="fill:#1BB798;" d="M363,188.9c-4.2,15.3-10.4,24.4-20.4,33.3c-30.4,28-114.7,103.9-121.1,109.7l-35.4,31.5
					c-2.2,1.9-8.7,7.7-17.3,15.5l92,0.3c45.2-39.8,144.1-124.7,155-131.9c8.9-6.1,27.8-18.2,11.7-47c-16.6-18.6-41.7-48.8-65.7-76.5
					l-28.5-0.1C354.6,147.9,366.3,172,363,188.9z"/>
			</g>
		</g>
	</g>
</g>
</svg>
